<!-- icon666.com - MILLIONS vector ICONS FREE --><svg id="svg1432" clip-rule="evenodd" fill-rule="evenodd" stroke-linejoin="round" stroke-miterlimit="2" viewBox="0 0 32 32" xmlns="http://www.w3.org/2000/svg" xmlns:svg="http://www.w3.org/2000/svg"><g id="g1429" transform="translate(-327.439 -82.981)"><path id="rect1145" d="m334.439 86.981h21v23h-21z" fill="#e8edfc"></path><path id="rect1147" d="m352.439 86.981h3v12h-3z" fill="#cad9fc"></path><path id="rect1149" d="m7 4v12h9v-12zm9 12v12h12v-12z" fill="#a4c2f7" transform="translate(327.439 82.981)"></path><path id="rect1153" d="m352.439 98.981h3v12h-3z" fill="#87b1f9"></path><path id="path1155" d="m330.43945 85.981453h26v25.999997h-22v-2h8v-9.999997h-10v7.999997h-2zm0 23.999997h2v2h-2zm24-9.999997h-10v9.999997h10zm-2 5.999997h-6v2h6zm-12-2h-6v2h6zm12-2h-6v2h6zm-8-13.999997v10h10v-10zm-2 0h-10v10h10zm-6 4v-2h2v2h2v2h-2v2h-2v-2h-2v-2zm13.121-.293 1.415-1.414 1.414 1.414-1.414 1.414 1.414 1.415-1.414 1.414-1.415-1.414-1.414 1.414-1.414-1.414 1.414-1.415-1.414-1.414 1.414-1.414z" fill="#428dff"></path></g></svg>